Coordinates
version=1
nRows=11
nColumns=40
inDegrees=yes

Units are S.I. units (second, meters, Newtons, ...)
Angles are in degrees.

endheader
time	pelvis_tilt	pelvis_list	pelvis_rotation	pelvis_tx	pelvis_ty	pelvis_tz	hip_flexion_r	hip_adduction_r	hip_rotation_r	knee_angle_r	knee_angle_r_beta	ankle_angle_r	subtalar_angle_r	mtp_angle_r	hip_flexion_l	hip_adduction_l	hip_rotation_l	knee_angle_l	knee_angle_l_beta	ankle_angle_l	subtalar_angle_l	mtp_angle_l	lumbar_extension	lumbar_bending	lumbar_rotation	arm_flex_r	arm_add_r	arm_rot_r	elbow_flex_r	pro_sup_r	wrist_flex_r	wrist_dev_r	arm_flex_l	arm_add_l	arm_rot_l	elbow_flex_l	pro_sup_l	wrist_flex_l	wrist_dev_l
     19.62342857	     -5.94126200	     -3.51886169	    -13.87075860	      1.01122719	      0.92527630	      0.42415423	     26.33947742	     -1.06449757	     -5.39371911	     14.72770132	     14.72770132	      5.36210991	     13.15378936	      9.24848846	     14.01608383	     -4.43790648	    -14.95379165	     24.08823229	     24.08823229	     17.94593712	    -17.91244617	      5.25542366	    -11.39647074	      5.24710540	      1.67747839	    -20.38548482	     -9.89156771	     -5.43925923	     34.75237170	     45.79473493	      0.00000000	      0.00000000	     50.51081005	    -25.14984844	     -3.57468809	     58.32426309	     47.77386207	      0.00000000	      0.00000000
     19.64685714	     -5.97301026	     -3.04792651	    -14.30733952	      1.01107146	      0.92462085	      0.42734809	     26.16648464	     -1.05780141	     -5.38874278	     13.91323931	     13.91323931	      5.09352811	     13.67605737	      9.46517323	     13.56699690	     -4.11793961	    -15.49083926	     23.80004991	     23.80004991	     18.15822170	    -17.81337315	      5.07786529	    -11.17694895	      4.88748896	      1.63688650	    -20.41738739	     -9.64664904	     -5.28954966	     34.91186024	     45.77871226	      0.00000000	      0.00000000	     51.45086612	    -25.42147089	     -3.82977665	     58.97016853	     47.80982843	      0.00000000	      0.00000000
     19.67028571	     -5.96866031	     -2.64910322	    -14.69310249	      1.01147467	      0.92406314	      0.43058432	     26.04662081	     -1.08168399	     -5.33802510	     13.72707847	     13.72707847	      4.91568305	     13.99943131	      9.30654966	     13.01364820	     -3.83383755	    -15.95262523	     23.46155892	     23.46155892	     18.36583918	    -17.71758907	      4.88455921	    -10.98426908	      4.66777442	      1.69082597	    -20.43696262	     -9.58078610	     -5.19379868	     35.07173915	     45.76634912	      0.00000000	      0.00000000	     52.11008806	    -25.59509313	     -4.11992273	     59.66893663	     47.84690377	      0.00000000	      0.00000000
     19.69371429	     -5.83900319	     -2.22605292	    -15.02535836	      1.01259342	      0.92367167	      0.43389705	     25.91491881	     -1.22678964	     -5.14412464	     14.08829383	     14.08829383	      4.60871566	     14.01996969	      7.77721377	     12.13428669	     -3.41294897	    -16.36446437	     22.78677715	     22.78677715	     18.35407850	    -17.64252321	      4.32064848	    -10.92433104	      4.45437694	      1.75470130	    -20.51641118	     -9.66431155	     -4.97759633	     35.50572030	     45.73615602	      0.00000000	      0.00000000	     52.06307044	    -25.57173686	     -4.96227661	     61.28916796	     47.93033917	      0.00000000	      0.00000000
     19.71714286	     -5.79440970	     -1.95931790	    -15.21548590	      1.01413420	      0.92303384	      0.43737791	     25.63956142	     -1.17881733	     -4.62004638	     14.24062211	     14.24062211	      3.13445777	     13.26658779	      2.72934676	     11.45322724	     -3.23697933	    -16.70724377	     22.41390675	     22.41390675	     18.11385211	    -17.65638992	      2.89646805	    -10.79506389	      4.47847292	      1.09429078	    -20.22908239	    -10.16955422	     -4.33777185	     36.19514139	     45.67856025	      0.00000000	      0.00000000	     51.18335795	    -26.09893168	     -7.05696907	     63.99073634	     48.10187342	      0.00000000	      0.00000000
     19.74057143	     -5.69475507	     -1.67095968	    -15.35699152	      1.01608502	      0.92269380	      0.44100275	     25.63387731	     -1.28204400	     -4.21000493	     15.25830967	     15.25830967	      3.35318627	     12.72212963	      1.98636268	     10.61691261	     -2.95317778	    -16.89277263	     21.89563452	     21.89563452	     18.35121098	    -17.50855494	      2.89347460	    -10.64309827	      4.44710583	      1.13855875	    -20.11507838	    -10.46764597	     -4.28383069	     36.13196613	     45.68024552	      0.00000000	      0.00000000	     51.35733612	    -26.08593201	     -7.12683136	     64.20378610	     48.10906802	      0.00000000	      0.00000000
     19.76400000	     -5.61066985	     -1.46509624	    -15.41245857	      1.01843067	      0.92238699	      0.44486146	     25.60542614	     -1.29766448	     -3.67268397	     16.34782916	     16.34782916	      3.58092748	     11.86505155	      1.07690034	      9.74478263	     -2.75000906	    -16.97900568	     21.34418683	     21.34418683	     18.52657514	    -17.38842318	      2.85320917	    -10.47793974	      4.50464436	      1.17032123	    -20.02924629	    -10.83171397	     -4.29187182	     36.06053941	     45.68581057	      0.00000000	      0.00000000	     51.33680562	    -26.02168851	     -7.30085407	     64.58332561	     48.12496494	      0.00000000	      0.00000000
     19.78742857	     -5.50868250	     -1.29526983	    -15.40086432	      1.02111031	      0.92221887	      0.44902866	     25.55184462	     -1.25949407	     -3.00494377	     17.49394114	     17.49394114	      3.84565062	     10.73929504	      0.05839394	      8.76760319	     -2.58367741	    -17.03746095	     20.68639250	     20.68639250	     18.62841002	    -17.20758190	      2.76914810	    -10.36108748	      4.55814244	      1.14505261	    -19.96218434	    -11.20945150	     -4.34479576	     35.96515198	     45.69503218	      0.00000000	      0.00000000	     51.14705545	    -25.96857141	     -7.58300891	     65.07947352	     48.14882802	      0.00000000	      0.00000000
     19.81085714	     -5.45421438	     -1.27813450	    -15.28194898	      1.02408817	      0.92211376	      0.45349767	     25.23931994	     -0.98993969	     -2.17345261	     18.11535903	     18.11535903	      3.23598997	      9.02796596	     -3.21738423	      7.73348385	     -2.59983722	    -17.06049900	     19.88594735	     19.88594735	     18.26143484	    -17.10338468	      1.62821014	    -10.23717780	      4.73915137	      0.49315579	    -19.43003771	    -11.71418438	     -4.37063376	     35.41488524	     45.73200631	      0.00000000	      0.00000000	     50.04874334	    -26.29674265	     -9.02460877	     67.02881581	     48.25022115	      0.00000000	      0.00000000
     19.83428571	     -5.36379190	     -1.28075111	    -15.09939430	      1.02715158	      0.92222910	      0.45819182	     25.03768413	     -0.80238009	     -1.75494910	     19.11701269	     19.11701269	      3.77409154	      8.07454904	     -3.51578147	      6.64929713	     -2.63519610	    -16.99930981	     19.10467526	     19.10467526	     18.30779923	    -16.74634361	      1.66737180	    -10.12901776	      4.86047914	      0.44800395	    -19.48091734	    -12.08409203	     -4.42503394	     35.27838866	     45.74217953	      0.00000000	      0.00000000	     49.89086699	    -26.19043908	     -9.03825161	     67.14397572	     48.24774425	      0.00000000	      0.00000000
     19.85771429	     -5.44850746	     -1.49275832	    -14.75613417	      1.03021732	      0.92222991	      0.46294497	     24.75292159	     -0.44882764	     -1.80602139	     19.73951050	     19.73951050	      4.32404687	      7.63473158	     -3.76586436	      5.88244863	     -3.00804088	    -16.79093480	     18.65867761	     18.65867761	     18.39824479	    -16.49956100	      1.70122842	     -9.88432712	      5.31572061	      0.28334759	    -19.62341876	    -12.44604974	     -4.49804190	     35.16497079	     45.75089102	      0.00000000	      0.00000000	     49.69009423	    -26.00404171	     -8.98673478	     67.17000896	     48.24204422	      0.00000000	      0.00000000
